<svg xmlns="http://www.w3.org/2000/svg" xmlns:xlink="http://www.w3.org/1999/xlink" width="100" zoomAndPan="magnify" viewBox="0 0 75 74.999997" height="100" preserveAspectRatio="xMidYMid meet" version="1.0"><defs><g/><clipPath id="4f2224ef7c"><path d="M 0 28 L 75 28 L 75 75 L 0 75 Z M 0 28 " clip-rule="nonzero"/></clipPath><clipPath id="ff2dbdd251"><path d="M -47.65625 -28.257812 L 51.257812 -67.726562 L 109.074219 77.164062 L 10.160156 116.632812 Z M -47.65625 -28.257812 " clip-rule="nonzero"/></clipPath><clipPath id="a564eb91bf"><path d="M -47.65625 -28.257812 L 51.257812 -67.726562 L 109.074219 77.164062 L 10.160156 116.632812 Z M -47.65625 -28.257812 " clip-rule="nonzero"/></clipPath><clipPath id="5bf546fd2b"><path d="M 0 0 L 75 0 L 75 63 L 0 63 Z M 0 0 " clip-rule="nonzero"/></clipPath><clipPath id="105f738ac5"><path d="M -47.65625 -28.257812 L 51.257812 -67.726562 L 109.074219 77.164062 L 10.160156 116.632812 Z M -47.65625 -28.257812 " clip-rule="nonzero"/></clipPath><clipPath id="6dfcbf5313"><path d="M -47.65625 -28.257812 L 51.257812 -67.726562 L 109.074219 77.164062 L 10.160156 116.632812 Z M -47.65625 -28.257812 " clip-rule="nonzero"/></clipPath><clipPath id="cda3269c1a"><path d="M 0.078125 0.441406 L 2 0.441406 L 2 2.839844 L 0.078125 2.839844 Z M 0.078125 0.441406 " clip-rule="nonzero"/></clipPath><clipPath id="90fb0916a5"><path d="M 1 0.441406 L 4 0.441406 L 4 2.839844 L 1 2.839844 Z M 1 0.441406 " clip-rule="nonzero"/></clipPath><clipPath id="7ccf576fce"><path d="M 3 0.441406 L 5 0.441406 L 5 2.839844 L 3 2.839844 Z M 3 0.441406 " clip-rule="nonzero"/></clipPath><clipPath id="39c7a8d30f"><path d="M 4 1 L 6 1 L 6 2.839844 L 4 2.839844 Z M 4 1 " clip-rule="nonzero"/></clipPath><clipPath id="da5f418439"><path d="M 5 1 L 7 1 L 7 2.839844 L 5 2.839844 Z M 5 1 " clip-rule="nonzero"/></clipPath><clipPath id="a8bd2fa2aa"><rect x="0" width="8" y="0" height="3"/></clipPath></defs><rect x="-7.5" width="90" fill="#ffffff" y="-7.5" height="89.999996" fill-opacity="1"/><rect x="-7.5" width="90" fill="#ffffff" y="-7.5" height="89.999996" fill-opacity="1"/><g clip-path="url(#4f2224ef7c)"><g clip-path="url(#ff2dbdd251)"><g clip-path="url(#a564eb91bf)"><path fill="#00bf63" d="M 73.164062 29.402344 C 71.453125 30.789062 69.558594 31.90625 67.582031 32.859375 C 65.351562 33.933594 63.074219 34.910156 60.808594 35.921875 C 60.476562 36.070312 60.289062 36.246094 60.214844 36.636719 C 59.441406 40.714844 58.640625 44.789062 57.847656 48.859375 C 57.703125 49.59375 57.3125 50.097656 56.5625 50.308594 C 56.042969 50.453125 55.539062 50.660156 54.980469 50.855469 C 54.9375 50.667969 54.902344 50.519531 54.863281 50.371094 C 54.296875 48 53.71875 45.636719 53.160156 43.261719 C 53.09375 42.984375 52.964844 42.828125 52.710938 42.699219 C 51.605469 42.125 50.519531 41.515625 49.414062 40.945312 C 49.222656 40.847656 48.933594 40.808594 48.738281 40.878906 C 45.445312 42.121094 42.003906 42.832031 38.59375 43.632812 C 37.539062 43.878906 36.460938 44.03125 35.359375 44.230469 C 35.359375 45.035156 35.34375 45.816406 35.378906 46.59375 C 35.398438 47.042969 35.175781 47.300781 34.816406 47.457031 C 34.445312 47.625 34.082031 47.78125 33.675781 47.421875 C 32.714844 46.582031 31.726562 45.78125 30.730469 44.984375 C 30.554688 44.84375 30.277344 44.792969 30.042969 44.78125 C 29.789062 44.765625 29.527344 44.820312 29.269531 44.835938 C 14.824219 51.195312 3.800781 60.367188 -1.234375 69.558594 L -1.179688 82.273438 C -1.152344 88.003906 3.554688 92.675781 9.285156 92.648438 L 15.722656 92.621094 C 15.695312 92.882812 15.679688 93.152344 15.679688 93.425781 C 15.691406 96.207031 17.332031 98.457031 19.347656 98.449219 C 21.367188 98.441406 22.988281 96.175781 22.976562 93.394531 C 22.972656 93.121094 22.957031 92.851562 22.925781 92.589844 L 50.777344 92.472656 C 50.75 92.738281 50.734375 93.003906 50.738281 93.28125 C 50.746094 96.0625 52.390625 98.3125 54.40625 98.304688 C 56.421875 98.296875 58.042969 96.03125 58.03125 93.25 C 58.03125 92.976562 58.011719 92.707031 57.984375 92.445312 L 64.417969 92.417969 C 70.152344 92.394531 74.824219 87.683594 74.796875 81.949219 L 74.570312 28.039062 C 74.171875 28.554688 73.675781 28.988281 73.164062 29.402344 Z M 73.164062 29.402344 " fill-opacity="1" fill-rule="nonzero"/></g></g></g><g clip-path="url(#5bf546fd2b)"><g clip-path="url(#105f738ac5)"><g clip-path="url(#6dfcbf5313)"><path fill="#00bf63" d="M 28.21875 43.199219 C 27.21875 42.632812 26.230469 42.074219 25.242188 41.507812 C 24.183594 40.90625 23.125 40.308594 22.066406 39.707031 C 21.730469 39.511719 21.699219 39.347656 21.984375 39.082031 C 22.535156 38.5625 23.199219 38.429688 23.929688 38.582031 C 25.8125 38.976562 27.699219 39.367188 29.582031 39.761719 C 29.675781 39.78125 29.777344 39.796875 29.925781 39.824219 C 29.460938 38.421875 29.011719 37.0625 28.574219 35.734375 C 29.710938 34.875 30.792969 35.039062 31.859375 35.753906 C 33.3125 36.722656 34.761719 37.699219 36.226562 38.652344 C 36.367188 38.742188 36.644531 38.734375 36.808594 38.660156 C 38.140625 38.078125 39.460938 37.46875 40.78125 36.867188 C 41.414062 36.582031 42.046875 36.300781 42.738281 35.988281 C 42.144531 35.613281 41.601562 35.269531 41.0625 34.929688 C 40.40625 34.515625 39.773438 34.058594 39.089844 33.703125 C 38.550781 33.421875 37.953125 33.25 37.371094 33.054688 C 32.460938 31.386719 27.546875 29.726562 22.632812 28.0625 C 22.527344 28.027344 22.425781 27.984375 22.269531 27.921875 C 22.863281 27.316406 23.167969 26.492188 24.027344 26.230469 C 24.289062 26.152344 24.585938 26.078125 24.851562 26.117188 C 34 27.351562 43.148438 28.597656 52.296875 29.84375 C 53.230469 29.96875 54.167969 30.054688 55.089844 30.234375 C 55.691406 30.351562 56.199219 30.222656 56.730469 29.984375 C 59.230469 28.84375 65.476562 25.769531 66.113281 25.394531 C 67.191406 24.765625 68.363281 24.355469 69.617188 24.433594 C 71.046875 24.523438 72.476562 24.703125 73.894531 24.925781 C 74.148438 24.96875 74.367188 25.046875 74.550781 25.152344 L 74.433594 -2.828125 C 74.414062 -8.558594 69.703125 -13.230469 63.96875 -13.207031 L 54.738281 -13.167969 L 54.597656 -46.75 C 54.574219 -51.785156 51.613281 -55.714844 47.847656 -55.699219 L 24.597656 -55.601562 C 20.832031 -55.582031 17.902344 -51.628906 17.925781 -46.59375 L 18.066406 -13.011719 L 8.839844 -12.972656 C 3.105469 -12.949219 -1.5625 -8.238281 -1.539062 -2.503906 L -1.265625 62.667969 C 5.226562 54.996094 15.582031 47.910156 28.21875 43.199219 Z M 22.558594 -46.617188 C 22.546875 -49.3125 23.886719 -50.964844 24.621094 -50.964844 L 47.871094 -51.0625 C 48.605469 -51.066406 49.957031 -49.425781 49.96875 -46.730469 L 50.109375 -13.144531 L 22.703125 -13.03125 Z M 22.558594 -46.617188 " fill-opacity="1" fill-rule="nonzero"/></g></g></g><g transform="matrix(1, 0, 0, 1, 34, 7)"><g clip-path="url(#a8bd2fa2aa)"><g clip-path="url(#cda3269c1a)"><g fill="#00bf63" fill-opacity="1"><g transform="translate(0.188796, 2.133334)"><g><path d="M 1.578125 -1.140625 L 1.453125 -1.140625 L 1.453125 0 L 1.015625 0 L 0.515625 -0.765625 L 0.515625 -0.265625 L 0.65625 -0.265625 L 0.65625 0 L 0.046875 0 L 0.046875 -0.265625 L 0.171875 -0.265625 L 0.171875 -1.140625 L 0.046875 -1.140625 L 0.046875 -1.390625 L 0.625 -1.390625 L 1.109375 -0.65625 L 1.109375 -1.140625 L 0.984375 -1.140625 L 0.984375 -1.390625 L 1.578125 -1.390625 Z M 1.578125 -1.140625 "/></g></g></g></g><g clip-path="url(#90fb0916a5)"><g fill="#00bf63" fill-opacity="1"><g transform="translate(1.82081, 2.133334)"><g><path d="M 0.046875 -1.390625 L 1.25 -1.390625 L 1.25 -0.953125 L 0.890625 -0.953125 L 0.890625 -1.140625 L 0.59375 -1.140625 L 0.59375 -0.78125 L 0.96875 -0.78125 L 0.96875 -0.515625 L 0.59375 -0.515625 L 0.59375 -0.265625 L 0.796875 -0.265625 L 0.796875 0 L 0.046875 0 L 0.046875 -0.265625 L 0.171875 -0.265625 L 0.171875 -1.140625 L 0.046875 -1.140625 Z M 0.046875 -1.390625 "/></g></g></g></g><g clip-path="url(#7ccf576fce)"><g fill="#00bf63" fill-opacity="1"><g transform="translate(3.09682, 2.133334)"><g><path d="M 1.375 -1.390625 L 1.375 -0.875 L 1.078125 -0.875 L 1.078125 -1.140625 L 0.90625 -1.140625 L 0.90625 -0.265625 L 1.078125 -0.265625 L 1.078125 0 L 0.328125 0 L 0.328125 -0.265625 L 0.5 -0.265625 L 0.5 -1.140625 L 0.328125 -1.140625 L 0.328125 -0.875 L 0.03125 -0.875 L 0.03125 -1.390625 Z M 1.375 -1.390625 "/></g></g></g></g><g clip-path="url(#39c7a8d30f)"><g fill="#00bf63" fill-opacity="1"><g transform="translate(4.498832, 2.133334)"><g><path d="M 0.03125 0 L 0.03125 -0.359375 L 0.296875 -0.359375 C 0.296875 -0.328125 0.304688 -0.300781 0.328125 -0.28125 C 0.359375 -0.257812 0.390625 -0.242188 0.421875 -0.234375 C 0.460938 -0.222656 0.492188 -0.21875 0.515625 -0.21875 C 0.535156 -0.21875 0.550781 -0.222656 0.5625 -0.234375 C 0.582031 -0.242188 0.59375 -0.265625 0.59375 -0.296875 C 0.59375 -0.316406 0.578125 -0.332031 0.546875 -0.34375 C 0.523438 -0.351562 0.488281 -0.363281 0.4375 -0.375 C 0.394531 -0.382812 0.347656 -0.394531 0.296875 -0.40625 C 0.253906 -0.425781 0.210938 -0.445312 0.171875 -0.46875 C 0.128906 -0.5 0.09375 -0.535156 0.0625 -0.578125 C 0.0390625 -0.617188 0.03125 -0.671875 0.03125 -0.734375 C 0.03125 -0.785156 0.0390625 -0.828125 0.0625 -0.859375 C 0.09375 -0.898438 0.125 -0.929688 0.15625 -0.953125 C 0.195312 -0.972656 0.238281 -0.988281 0.28125 -1 C 0.320312 -1.019531 0.359375 -1.03125 0.390625 -1.03125 C 0.453125 -1.03125 0.507812 -1.015625 0.5625 -0.984375 C 0.625 -0.953125 0.664062 -0.914062 0.6875 -0.875 L 0.703125 -1 L 0.953125 -1 L 0.953125 -0.640625 L 0.6875 -0.640625 C 0.6875 -0.671875 0.675781 -0.695312 0.65625 -0.71875 C 0.632812 -0.738281 0.609375 -0.753906 0.578125 -0.765625 C 0.546875 -0.785156 0.515625 -0.796875 0.484375 -0.796875 C 0.460938 -0.796875 0.441406 -0.789062 0.421875 -0.78125 C 0.410156 -0.769531 0.40625 -0.75 0.40625 -0.71875 C 0.40625 -0.695312 0.414062 -0.679688 0.4375 -0.671875 C 0.46875 -0.660156 0.5 -0.648438 0.53125 -0.640625 C 0.570312 -0.628906 0.613281 -0.613281 0.65625 -0.59375 C 0.707031 -0.570312 0.753906 -0.550781 0.796875 -0.53125 C 0.847656 -0.507812 0.890625 -0.476562 0.921875 -0.4375 C 0.953125 -0.394531 0.96875 -0.34375 0.96875 -0.28125 C 0.96875 -0.21875 0.953125 -0.160156 0.921875 -0.109375 C 0.890625 -0.0664062 0.84375 -0.03125 0.78125 0 C 0.726562 0.0195312 0.671875 0.03125 0.609375 0.03125 C 0.535156 0.03125 0.46875 0.015625 0.40625 -0.015625 C 0.351562 -0.046875 0.316406 -0.0820312 0.296875 -0.125 L 0.28125 0 Z M 0.03125 0 "/></g></g></g></g><g clip-path="url(#da5f418439)"><g fill="#00bf63" fill-opacity="1"><g transform="translate(5.51484, 2.133334)"><g><path d="M 0.671875 0 L 0.046875 0 L 0.046875 -0.265625 L 0.140625 -0.265625 L 0.140625 -0.734375 L 0.046875 -0.734375 L 0.046875 -1 L 0.46875 -1 L 0.515625 -0.875 C 0.554688 -0.925781 0.597656 -0.960938 0.640625 -0.984375 C 0.691406 -1.015625 0.75 -1.03125 0.8125 -1.03125 C 0.882812 -1.03125 0.941406 -1.015625 0.984375 -0.984375 C 1.035156 -0.960938 1.070312 -0.929688 1.09375 -0.890625 C 1.125 -0.847656 1.144531 -0.800781 1.15625 -0.75 C 1.164062 -0.695312 1.171875 -0.644531 1.171875 -0.59375 L 1.171875 -0.265625 L 1.265625 -0.265625 L 1.265625 0 L 0.765625 0 L 0.765625 -0.546875 C 0.765625 -0.566406 0.757812 -0.59375 0.75 -0.625 C 0.75 -0.65625 0.738281 -0.679688 0.71875 -0.703125 C 0.707031 -0.722656 0.679688 -0.734375 0.640625 -0.734375 C 0.609375 -0.734375 0.582031 -0.722656 0.5625 -0.703125 C 0.550781 -0.679688 0.539062 -0.65625 0.53125 -0.625 C 0.519531 -0.601562 0.515625 -0.578125 0.515625 -0.546875 L 0.515625 -0.265625 L 0.671875 -0.265625 Z M 0.671875 0 "/></g></g></g></g></g></g></svg>